<?xml version="1.0" ?><!DOCTYPE svg  PUBLIC '-//W3C//DTD SVG 1.1//EN'  'http://www.w3.org/Graphics/SVG/1.1/DTD/svg11.dtd'><svg enable-background="new 0 0 100 100" height="100px" id="Layer_1" version="1.1" viewBox="0 0 100 100" width="100px" xml:space="preserve" xmlns="http://www.w3.org/2000/svg" xmlns:xlink="http://www.w3.org/1999/xlink"><g><g><g><g/></g><g/></g></g><path d="M57,22.981v-5.314V6H41v11.667V22.9L29,41.066v48.601C29,92.976,32.025,96,35.333,96h28  C66.642,96,69,92.976,69,89.667V41.064L57,22.981z M45,10h8v4h-8V10z M63.333,92h-28C34.23,92,33,90.77,33,89.667V71h12v-2H33v-6h6  v-2h-6v-6h12v-2H33V42.268l12-18.166V18h8v6.187L65,42.27V53h-5v2h5v6H53v2h12v6h-5v2h5v18.667C65,90.77,64.437,92,63.333,92z" fill="#231F20"/></svg>