<?xml version="1.0" encoding="iso-8859-1"?>
<!-- Generator: Adobe Illustrator 21.1.0, SVG Export Plug-In . SVG Version: 6.00 Build 0)  -->
<svg version="1.1" id="Layer_1" xmlns="http://www.w3.org/2000/svg" xmlns:xlink="http://www.w3.org/1999/xlink" x="0px" y="0px"
	 viewBox="0 0 24 24" enable-background="new 0 0 24 24" xml:space="preserve">
<g>
	<path fill="#303C42" d="M9.5040855,15H6.813168l0.9145508-1.8291016l1.5527339,0.7763672
		c0.1860352,0.0942383,0.4125977,0.0610352,0.5649414-0.081543s0.2006836-0.3652344,0.1201172-0.5581055l-2.4999995-6
		C7.3878751,7.121582,7.2057462,7,7.004086,7h-6.5c-0.2021484,0-0.3847656,0.121582-0.461914,0.3085938
		c-0.0776367,0.1870117-0.034668,0.4018555,0.1083984,0.5449219l1.7451172,1.7451172L0.236996,12.9160156
		c-0.3325195,0.6655273-0.2973633,1.4404297,0.09375,2.0732422c0.1035156,0.168457,0.2280273,0.3183594,0.368164,0.4482422
		l3.499512,5.0546875C4.8517423,21.4360352,5.9274259,22,7.0758634,22h2.4282222c0.2763672,0,0.5-0.2236328,0.5-0.5v-6
		C10.0040855,15.2236328,9.7804527,15,9.5040855,15z"/>
	<path fill="#7CB342" d="M1.4469569,14.7612305L1.402035,14.7246094c-0.0849609-0.0742188-0.159668-0.1616211-0.2207031-0.2607422
		c-0.2080078-0.3359375-0.2265625-0.7475586-0.0498047-1.1005859l1.8198242-3.6396484
		c0.0961914-0.1923828,0.0585938-0.4248047-0.09375-0.5771484L1.711117,8h4.9594727l1.85498,4.4516602l-0.7978511-0.3989258
		c-0.2475586-0.1230469-0.546875-0.0234375-0.6708984,0.2236328L5.695004,15H2.1432459
		C1.8854334,15,1.6422694,14.9145508,1.4469569,14.7612305z"/>
	<path opacity="0.1" fill="#010101" d="M3.0291712,14.9245605c-0.2578125,0-0.5009766-0.0854492-0.6962891-0.2387695
		l-0.0449219-0.0366211c-0.0849609-0.0742188-0.159668-0.1616211-0.2207031-0.2607422
		c-0.2080078-0.3359375-0.2265625-0.7475586-0.0498047-1.1005859l1.8198242-3.6396484
		c0.0961914-0.1923828,0.0585938-0.4248047-0.09375-0.5771484L2.6724818,8H1.711117l1.1464844,1.1464844
		c0.1523438,0.1523438,0.1899414,0.3847656,0.09375,0.5771484l-1.8198242,3.6396484
		c-0.1767578,0.3530273-0.1582031,0.7646484,0.0498047,1.1005859c0.0610352,0.0991211,0.1357422,0.1865234,0.2207031,0.2607422
		l0.0449219,0.0366211C1.6422694,14.9145508,1.8854334,15,2.1432459,15H5.695004l0.0377197-0.0754395H3.0291712z"/>
	<path fill="#679F42" d="M9.0040855,21H7.0758634c-0.8203125,0-1.5883789-0.402832-2.0551758-1.0771484L2.3043787,16h6.699707V21z"
		/>
	<path fill="#303C42" d="M23.7599449,12.8950195l-2.3198242-4.1396484
		c-0.1347656-0.2407227-0.4384766-0.3276367-0.6787109-0.1923828l-4.5,2.5
		c-0.1201172,0.0664063-0.2070313,0.1791992-0.2416992,0.3120117c-0.0341797,0.1328125-0.012207,0.2739258,0.0605469,0.3901367
		L18.1017418,15h-2.0976563v-1.5c0-0.2167969-0.1396484-0.4086914-0.3452148-0.4755859
		c-0.2055664-0.0673828-0.4316406,0.0063477-0.559082,0.1816406l-4,5.5
		c-0.1381836,0.1899414-0.1254883,0.4506836,0.0307617,0.6259766l4,4.5C15.2272301,23.940918,15.3639488,24,15.5040855,24
		c0.0595703,0,0.1196289-0.0107422,0.1777344-0.0327148c0.1938477-0.0737305,0.3222656-0.2597656,0.3222656-0.4672852V22h0.9282227
		c1.1484375,0,2.2241211-0.5639648,2.8774414-1.5078125c0,0,3.7660522-5.338562,3.8676758-5.5029297
		C24.0685387,14.3564453,24.1036949,13.581543,23.7599449,12.8950195z"/>
	<path fill="#679F42" d="M18.987484,19.9228516C18.5206871,20.597168,17.7526207,21,16.9323082,21h-1.4282227
		c-0.2763672,0-0.5,0.2236328-0.5,0.5v0.6850586L12.1451988,18.96875l2.8588867-3.9311523V15.5c0,0.2763672,0.2236328,0.5,0.5,0.5
		h6.1994019L18.987484,19.9228516z"/>
	<path fill="#7CB342" d="M22.8268394,14.4638672c-0.0270996,0.0438232-0.2507324,0.2758179-0.2507324,0.2758179
		C22.3776817,14.9023438,22.131588,15,21.8649254,15h-2.5834961l-2.0742188-3.3183594l3.6044922-2.0024414l2.0649414,3.684082
		C23.0534019,13.7163086,23.0348473,14.1279297,22.8268394,14.4638672z"/>
	<path opacity="0.1" fill="#010101" d="M22.8766441,13.3632813l-2.0649414-3.684082l-0.3518066,0.1954346l1.6838989,3.0042725
		c0.1767578,0.3530273,0.1582031,0.7646484-0.0498047,1.1005859c-0.0270996,0.0438232-0.2507324,0.2758179-0.2507324,0.2758179
		c-0.1984253,0.1626587-0.444519,0.2603149-0.7111816,0.2603149h-2.1534424L19.2814293,15h2.5834961
		c0.2666626,0,0.5127563-0.0976563,0.7111816-0.2603149c0,0,0.2236328-0.2319946,0.2507324-0.2758179
		C23.0348473,14.1279297,23.0534019,13.7163086,22.8766441,13.3632813z"/>
	<path fill="#303C42" d="M13.7667809,6.3095703l-1.4863281,0.7431641c-0.1923828,0.0961914-0.3017578,0.3046875-0.2714844,0.5180664
		c0.0307617,0.2128906,0.1938477,0.3828125,0.4057617,0.4208984l5.5,1C17.9445152,8.9975586,17.9747887,9,18.0040855,9
		c0.1992188,0,0.3828125-0.1191406,0.4614258-0.3076172l2.5-6c0.0805664-0.1928711,0.0322266-0.4155273-0.1201172-0.5581055
		c-0.152832-0.1430664-0.378418-0.1748047-0.5649414-0.081543l-1.6049805,0.8027344l-1.1616211-1.7421875
		C17.0490074,0.4160156,16.2716637,0,15.433773,0c0,0-6.2802734,0.0200195-6.4609375,0.0161133
		C7.8971524-0.0180664,6.8951993,0.4780273,6.245297,1.3452148L4.1041837,4.2001953
		C4.0167813,4.315918,3.9845545,4.4643555,4.0153165,4.605957c0.0307617,0.1420898,0.1220703,0.2636719,0.2495117,0.3330078
		l5.4999995,3C9.9879723,8.0625,10.265316,7.996582,10.4108238,7.7905273l2.2290039-3.1201172L13.7667809,6.3095703z"/>
	<path fill="#679F42" d="M15.433773,1c0.5024414,0,0.9692383,0.2495117,1.2480469,0.6679688l1.40625,2.109375
		c0.140625,0.2099609,0.4140625,0.2827148,0.6396484,0.1699219l0.7978516-0.3989258l-1.828125,4.3876953l-3.6279297-0.659668
		l0.6582031-0.3291016C14.8571129,6.8823242,14.9523277,6.7651367,14.9884605,6.625s0.0097656-0.2890625-0.0722656-0.4082031
		L11.643734,1.456543C11.5304527,1.2915039,11.4044762,1.1391602,11.2682457,1H15.433773z"/>
	<path opacity="0.2" fill="#FFFFFF" d="M11.7169762,1.5631104h3.7167969c0.5024414,0,0.9692383,0.2495117,1.2480469,0.6679688
		l1.40625,2.109375c0.140625,0.2099609,0.4140625,0.2827148,0.6396484,0.1699219l0.5014648-0.2507324l0.2963867-0.7113037
		l-0.7978516,0.3989258c-0.2255859,0.112793-0.4990234,0.0400391-0.6396484-0.1699219l-1.40625-2.109375
		C16.4030113,1.2495117,15.9362144,1,15.433773,1h-4.1655273c0.1362305,0.1391602,0.262207,0.2915039,0.3754883,0.456543
		L11.7169762,1.5631104z"/>
	<path fill="#7CB342" d="M9.8546715,6.8491211L5.250668,4.3378906l1.7944336-2.3930664
		c0.4545898-0.6054688,1.13623-0.9570313,1.9072261-0.9287109c0.7573242,0.015625,1.4379883,0.3823242,1.8671875,1.0068359
		l1.2172852,1.7709961L9.8546715,6.8491211z"/>
	<path opacity="0.1" fill="#010101" d="M6.7984586,3.0317383C7.2530484,2.4262695,7.934689,2.074707,8.7056847,2.1030273
		c0.7573242,0.015625,1.4379883,0.3823242,1.8671875,1.0068359l0.9575195,1.3930664l0.5064087-0.7089844l-1.2172852-1.7709961
		C10.390316,1.3984375,9.7096519,1.0317383,8.9523277,1.0161133C8.1813316,0.987793,7.4996915,1.3393555,7.0451016,1.9448242
		L5.250668,4.3378906l0.4033813,0.2200317L6.7984586,3.0317383z"/>
	<linearGradient id="SVGID_1_" gradientUnits="userSpaceOnUse" x1="0.6409575" y1="6.0232906" x2="23.0106926" y2="16.4544697">
		<stop  offset="0" style="stop-color:#FFFFFF;stop-opacity:0.2"/>
		<stop  offset="1" style="stop-color:#FFFFFF;stop-opacity:0"/>
	</linearGradient>
	<path fill="url(#SVGID_1_)" d="M9.5040855,15H6.813168l0.9145508-1.8291016l1.5527339,0.7763672
		c0.1860352,0.0942383,0.4125977,0.0610352,0.5649414-0.081543s0.2006836-0.3652344,0.1201172-0.5581055l-2.4999995-6
		C7.3878751,7.121582,7.2057462,7,7.004086,7h-6.5c-0.2021484,0-0.3847656,0.121582-0.461914,0.3085938
		c-0.0776367,0.1870117-0.034668,0.4018555,0.1083984,0.5449219l1.7451172,1.7451172L0.236996,12.9160156
		c-0.3325195,0.6655273-0.2973633,1.4404297,0.09375,2.0732422c0.1035156,0.168457,0.2280273,0.3183594,0.368164,0.4482422
		l3.499512,5.0546875C4.8517423,21.4360352,5.9274259,22,7.0758634,22h2.4282222c0.2763672,0,0.5-0.2236328,0.5-0.5v-6
		C10.0040855,15.2236328,9.7804527,15,9.5040855,15z M23.7599449,12.8950195l-2.3198242-4.1396484
		c-0.1347656-0.2407227-0.4384766-0.3276367-0.6787109-0.1923828l-4.5,2.5
		c-0.1201172,0.0664063-0.2070313,0.1791992-0.2416992,0.3120117c-0.0341797,0.1328125-0.012207,0.2739258,0.0605469,0.3901367
		L18.1017418,15h-2.0976563v-1.5c0-0.2167969-0.1396484-0.4086914-0.3452148-0.4755859
		c-0.2055664-0.0673828-0.4316406,0.0063477-0.559082,0.1816406l-4,5.5
		c-0.1381836,0.1899414-0.1254883,0.4506836,0.0307617,0.6259766l4,4.5C15.2272301,23.940918,15.3639488,24,15.5040855,24
		c0.0595703,0,0.1196289-0.0107422,0.1777344-0.0327148c0.1938477-0.0737305,0.3222656-0.2597656,0.3222656-0.4672852V22h0.9282227
		c1.1484375,0,2.2241211-0.5639648,2.8774414-1.5078125c0,0,3.7660522-5.338562,3.8676758-5.5029297
		C24.0685387,14.3564453,24.1036949,13.581543,23.7599449,12.8950195z M13.7667809,6.3095703l-1.4863281,0.7431641
		c-0.1923828,0.0961914-0.3017578,0.3046875-0.2714844,0.5180664c0.0307617,0.2128906,0.1938477,0.3828125,0.4057617,0.4208984
		l5.5,1C17.9445152,8.9975586,17.9747887,9,18.0040855,9c0.1992188,0,0.3828125-0.1191406,0.4614258-0.3076172l2.5-6
		c0.0805664-0.1928711,0.0322266-0.4155273-0.1201172-0.5581055c-0.152832-0.1430664-0.378418-0.1748047-0.5649414-0.081543
		l-1.6049805,0.8027344l-1.1616211-1.7421875C17.0490074,0.4160156,16.2716637,0,15.433773,0
		c0,0-6.2802734,0.0200195-6.4609375,0.0161133C7.8971524-0.0180664,6.8951993,0.4780273,6.245297,1.3452148L4.1041837,4.2001953
		C4.0167813,4.315918,3.9845545,4.4643555,4.0153165,4.605957c0.0307617,0.1420898,0.1220703,0.2636719,0.2495117,0.3330078
		l5.4999995,3C9.9879723,8.0625,10.265316,7.996582,10.4108238,7.7905273l2.2290039-3.1201172L13.7667809,6.3095703z"/>
</g>
<g>
</g>
<g>
</g>
<g>
</g>
<g>
</g>
<g>
</g>
<g>
</g>
<g>
</g>
<g>
</g>
<g>
</g>
<g>
</g>
<g>
</g>
<g>
</g>
<g>
</g>
<g>
</g>
<g>
</g>
</svg>
